<?xml version="1.0" standalone="no"?>
<!DOCTYPE svg PUBLIC "-//W3C//DTD SVG 20010904//EN"
 "http://www.w3.org/TR/2001/REC-SVG-20010904/DTD/svg10.dtd">
<svg version="1.0" xmlns="http://www.w3.org/2000/svg"
 width="224.000000pt" height="224.000000pt" viewBox="0 0 224.000000 224.000000"
 preserveAspectRatio="xMidYMid meet">
<metadata>
Created by potrace 1.14, written by Peter Selinger 2001-2017
</metadata>
<g transform="translate(0.000000,224.000000) scale(0.100000,-0.100000)"
fill="#000000" stroke="none">
<path d="M1120 1410 c-14 -14 -20 -33 -20 -64 0 -41 -2 -45 -31 -51 -43 -10
-97 -60 -109 -103 -5 -20 -10 -84 -10 -142 0 -135 20 -183 93 -219 64 -32 123
-23 177 25 50 45 64 103 58 235 -6 121 -29 165 -102 195 -44 18 -46 20 -46 62
0 30 5 44 16 49 25 9 48 -10 55 -47 8 -38 32 -60 64 -60 25 0 55 29 55 53 0
24 -17 21 -25 -4 -5 -15 -14 -19 -33 -17 -20 2 -28 10 -34 38 -16 64 -69 89
-108 50z m18 -225 c3 -47 -9 -70 -32 -62 -11 5 -16 19 -16 50 0 48 6 59 30 55
10 -2 16 -16 18 -43z"/>
<path d="M420 1070 l0 -100 38 1 c30 2 32 3 10 6 l-28 4 0 95 c0 56 -4 94 -10
94 -6 0 -10 -40 -10 -100z"/>
<path d="M677 1155 c-31 -31 -35 -137 -6 -171 6 -8 21 -14 33 -14 19 0 19 1
-4 13 -23 11 -25 19 -28 82 -2 57 0 72 14 82 10 7 15 15 12 18 -3 3 -13 -1
-21 -10z"/>
<path d="M723 1157 c9 -8 17 -22 17 -31 0 -9 4 -16 9 -16 17 0 -1 41 -23 51
-19 9 -19 9 -3 -4z"/>
<path d="M816 1154 c-23 -22 -26 -126 -6 -164 23 -43 90 -17 90 34 0 27 -19
17 -22 -11 -2 -22 -9 -29 -29 -31 -31 -4 -39 15 -39 96 0 39 5 57 20 72 11 11
16 20 11 20 -5 0 -17 -7 -25 -16z"/>
<path d="M1331 1071 c1 -56 5 -101 10 -101 5 0 9 32 9 71 0 53 3 68 13 63 10
-6 10 -4 0 7 -7 7 -13 21 -13 30 0 10 -5 21 -11 24 -7 5 -9 -26 -8 -94z"/>
<path d="M1770 1072 l0 -102 38 1 c36 1 36 2 7 8 -26 5 -30 11 -33 44 -3 31 1
39 20 46 l23 10 -23 0 c-21 1 -23 5 -21 41 2 21 0 42 -4 46 -4 4 -7 -38 -7
-94z"/>
<path d="M588 1151 c9 -5 12 -30 10 -87 l-3 -79 -30 0 -30 0 -6 80 -5 80 -2
-76 c-2 -85 8 -103 54 -97 32 3 41 25 43 95 1 50 -13 93 -31 93 -10 0 -10 -2
0 -9z"/>
<path d="M869 1146 c6 -8 16 -33 20 -57 l9 -44 1 42 c1 23 -4 45 -9 48 -6 4
-8 11 -5 16 4 5 -1 9 -11 9 -13 0 -14 -3 -5 -14z"/>
<path d="M1410 1107 c0 -29 -5 -58 -10 -63 -7 -7 -6 -21 4 -45 15 -33 15 -32
16 64 0 53 -2 97 -5 97 -3 0 -5 -24 -5 -53z"/>
<path d="M1495 1148 c-6 -17 -35 -157 -35 -169 0 -6 5 -7 10 -4 6 3 10 15 10
26 0 31 54 22 58 -8 2 -13 8 -23 14 -23 6 0 7 8 3 18 -5 13 -35 158 -35 170 0
8 -21 0 -25 -10z m28 -73 c1 -31 -2 -40 -15 -43 -15 -3 -18 3 -18 31 0 76 28
85 33 12z"/>
<path d="M1599 1118 c0 -24 -2 -61 -4 -84 -2 -22 1 -47 6 -55 5 -9 9 13 9 61
0 41 3 85 6 98 4 13 2 22 -5 22 -6 0 -11 -18 -12 -42z"/>
<path d="M1686 1134 c-4 -15 -5 -29 -1 -32 3 -3 5 0 5 6 0 7 4 12 10 12 5 0
11 -35 13 -77 3 -77 3 -77 5 20 2 77 -1 97 -12 97 -8 0 -17 -12 -20 -26z"/>
<path d="M1631 1084 c0 -11 3 -14 6 -6 3 7 2 16 -1 19 -3 4 -6 -2 -5 -13z"/>
<path d="M1671 1054 c0 -11 3 -14 6 -6 3 7 2 16 -1 19 -3 4 -6 -2 -5 -13z"/>
<path d="M728 1053 c20 -4 22 -9 16 -38 -3 -19 -1 -35 5 -39 7 -5 11 8 11 38
0 44 -1 46 -27 45 -25 -2 -25 -2 -5 -6z"/>
<path d="M1648 994 c3 -17 8 -22 15 -15 11 11 3 41 -11 41 -5 0 -7 -12 -4 -26z"/>
</g>
</svg>
